<svg xmlns="http://www.w3.org/2000/svg" viewBox="0 0 100 100" fill="none">
  <defs>
    <linearGradient id="g" x1="0" y1="0" x2="100" y2="100" gradientUnits="userSpaceOnUse">
      <stop offset="0%"   stop-color="#22C55E"/>
      <stop offset="45%"  stop-color="#14B8A6"/>
      <stop offset="100%" stop-color="#3B82F6"/>
    </linearGradient>
  </defs>
  <circle cx="50" cy="50" r="48" fill="url(#g)"/>
  <g fill="white" opacity="0.95">
    <path d="M50 26 C39 26 31 34 31 43 C31 49 33.5 54 38 56.5 C37 59 37 63 39.5 65.5 C42 68 45.5 68 48 66.5 L48 29 C46 27 50 26 50 26Z"/>
    <path d="M50 26 C61 26 69 34 69 43 C69 49 66.5 54 62 56.5 C63 59 63 63 60.5 65.5 C58 68 54.5 68 52 66.5 L52 29 C54 27 50 26 50 26Z"/>
    <rect x="48.5" y="27" width="3" height="39" rx="1.5"/>
    <path d="M37 41 Q34 43 37 45" stroke="white" stroke-width="1.5" fill="none" opacity="0.7"/>
    <path d="M63 41 Q66 43 63 45" stroke="white" stroke-width="1.5" fill="none" opacity="0.7"/>
    <path d="M40 52 Q37 54 41 56" stroke="white" stroke-width="1.5" fill="none" opacity="0.7"/>
    <path d="M60 52 Q63 54 59 56" stroke="white" stroke-width="1.5" fill="none" opacity="0.7"/>
  </g>
</svg>
